HIERARCHY
ROOT Hips
{
	OFFSET 0.000000 0.000000 0.000000
	CHANNELS 6 Xposition Yposition Zposition Zrotation Xrotation Yrotation
	JOINT Spine
	{
		OFFSET 0.000000 0.000001 13.607315
		CHANNELS 6 Xposition Yposition Zposition Zrotation Xrotation Yrotation
		JOINT Spine1
		{
			OFFSET 0.000000 0.000002 32.905151
			CHANNELS 6 Xposition Yposition Zposition Zrotation Xrotation Yrotation
			JOINT Neck
			{
				OFFSET 0.000000 0.000003 36.224007
				CHANNELS 6 Xposition Yposition Zposition Zrotation Xrotation Yrotation
				JOINT Head
				{
					OFFSET 0.000000 -3.318856 25.721138
					CHANNELS 6 Xposition Yposition Zposition Zrotation Xrotation Yrotation
					End Site
					{
						OFFSET 0.000000 0.000003 33.188583
					}
				}
			}
			JOINT LeftShoulder
			{
				OFFSET 6.601294 0.334552 29.862328
				CHANNELS 6 Xposition Yposition Zposition Zrotation Xrotation Yrotation
				JOINT LeftArm
				{
					OFFSET 19.242624 0.000000 0.000000
					CHANNELS 6 Xposition Yposition Zposition Zrotation Xrotation Yrotation
					JOINT LeftForeArm
					{
						OFFSET 50.754074 0.000000 0.000000
						CHANNELS 6 Xposition Yposition Zposition Zrotation Xrotation Yrotation
						JOINT LeftHand
						{
							OFFSET 39.779915 0.000000 0.000000
							CHANNELS 6 Xposition Yposition Zposition Zrotation Xrotation Yrotation
							End Site
							{
								OFFSET 24.891426 0.000000 0.000000
							}
						}
					}
				}
			}
			JOINT RightShoulder
			{
				OFFSET -6.670611 0.334552 29.862328
				CHANNELS 6 Xposition Yposition Zposition Zrotation Xrotation Yrotation
				JOINT RightArm
				{
					OFFSET -19.242626 0.000000 0.000000
					CHANNELS 6 Xposition Yposition Zposition Zrotation Xrotation Yrotation
					JOINT RightForeArm
					{
						OFFSET -50.754066 0.000000 0.000000
						CHANNELS 6 Xposition Yposition Zposition Zrotation Xrotation Yrotation
						JOINT RightHand
						{
							OFFSET -39.779915 0.000000 0.000000
							CHANNELS 6 Xposition Yposition Zposition Zrotation Xrotation Yrotation
							End Site
							{
								OFFSET -24.891434 0.000000 0.000000
							}
						}
					}
				}
			}
		}
	}
	JOINT LeftUpLeg
	{
		OFFSET 16.594286 0.000000 0.000000
		CHANNELS 6 Xposition Yposition Zposition Zrotation Xrotation Yrotation
		JOINT LeftLeg
		{
			OFFSET 0.000000 -0.000006 -80.133614
			CHANNELS 6 Xposition Yposition Zposition Zrotation Xrotation Yrotation
			JOINT LeftFoot
			{
				OFFSET 0.000000 -0.000005 -62.502724
				CHANNELS 6 Xposition Yposition Zposition Zrotation Xrotation Yrotation
				JOINT LeftToeBase
				{
					OFFSET 0.000000 -24.891430 -10.786270
					CHANNELS 6 Xposition Yposition Zposition Zrotation Xrotation Yrotation
					End Site
					{
						OFFSET 0.000000 -6.637711 0.000000
					}
				}
			}
		}
	}
	JOINT RightUpLeg
	{
		OFFSET -16.594286 0.000000 0.000000
		CHANNELS 6 Xposition Yposition Zposition Zrotation Xrotation Yrotation
		JOINT RightLeg
		{
			OFFSET 0.000000 -0.000006 -80.133614
			CHANNELS 6 Xposition Yposition Zposition Zrotation Xrotation Yrotation
			JOINT RightFoot
			{
				OFFSET 0.000000 -0.000005 -62.502724
				CHANNELS 6 Xposition Yposition Zposition Zrotation Xrotation Yrotation
				JOINT RightToeBase
				{
					OFFSET 0.000000 -24.891430 -10.786270
					CHANNELS 6 Xposition Yposition Zposition Zrotation Xrotation Yrotation
					End Site
					{
						OFFSET 0.000000 -6.637711 0.000000
					}
				}
			}
		}
	}
}
MOTION
Frames: 6
Frame Time: 0.041667
0.005817 0.022209 -0.002063 -9.885568 -21.710991 -0.032975 -0.000000 0.000001 13.607318 -3.961882 27.830719 4.245313 0.000000 0.000002 32.905155 3.291586 -6.468285 2.627975 -0.000000 0.000003 36.224010 -4.593597 18.318702 -0.072892 -0.000001 -3.318860 25.721148 -0.043540 2.310033 0.445171 6.601291 0.334552 29.862343 13.483500 5.691503 12.090301 19.242626 0.000000 0.000009 -11.881112 -0.101388 53.066496 50.754070 -0.000003 0.000007 -114.825561 18.844398 -0.000441 39.779926 0.000006 0.000002 10.177961 44.231397 15.502337 -6.670609 0.334552 29.862328 -16.103182 6.942828 -14.227279 -19.242626 0.000002 0.000012 15.158541 -3.780622 -54.298457 -50.754070 0.000002 -0.000003 110.191162 10.895537 -0.000575 -39.779911 -0.000001 0.000008 -23.192985 52.553770 -16.761356 16.594290 0.000001 0.000000 17.537240 21.784011 1.450826 -0.000000 -0.000006 -80.133614 -0.000006 7.915918 0.000081 -0.000005 -0.000017 -62.502716 20.181694 12.899071 -9.461150 0.000001 -24.891415 -10.786293 -0.000040 -26.571968 -0.000004 -16.594284 0.000000 0.000000 -10.669715 8.267621 18.781063 0.000003 -0.000005 -80.133614 0.000003 8.680145 -0.000013 -0.000001 -0.000010 -62.502708 -5.090287 27.716464 -9.778386 -0.000009 -24.891447 -10.786299 0.000012 -24.947155 -0.000012 
0.002071 0.014369 -0.002840 -9.873395 -21.725263 -0.014509 -0.000000 0.000001 13.607316 -3.986746 27.845687 4.268098 0.000000 0.000004 32.905155 3.308433 -6.465352 2.626809 -0.000002 0.000005 36.224018 -4.637459 18.335793 -0.058772 0.000001 -3.318859 25.721132 -0.043710 2.296573 0.446449 6.601293 0.334552 29.862328 13.471606 5.689773 12.083169 19.242632 0.000000 -0.000000 -11.858716 -0.107200 53.063012 50.754078 -0.000004 0.000009 -114.800262 18.737386 0.000085 39.779919 0.000006 0.000000 10.004228 44.110871 15.455514 -6.670610 0.334552 29.862328 -16.139208 6.940161 -14.208684 -19.242630 0.000002 -0.000007 15.108115 -3.762740 -54.391173 -50.754070 0.000009 0.000006 110.180862 10.817182 0.000407 -39.779903 0.000010 -0.000002 -23.298673 52.610697 -16.826834 16.594290 0.000000 -0.000000 17.521727 21.786345 1.436795 0.000002 -0.000006 -80.133621 -0.000000 7.943271 0.000047 -0.000003 -0.000004 -62.502705 20.202470 12.873577 -9.487624 -0.000001 -24.891443 -10.786275 -0.000024 -26.555885 0.000000 -16.594288 -0.000000 0.000000 -10.650323 8.275799 18.766855 -0.000000 -0.000006 -80.133614 0.000001 8.729688 -0.000014 -0.000003 -0.000014 -62.502716 -5.098454 27.663369 -9.872370 -0.000005 -24.891449 -10.786297 0.000004 -24.889793 -0.000003 
0.000000 -0.000000 -0.000000 -9.863449 -21.759157 -0.005523 -0.000000 0.000002 13.607315 -4.008063 27.884609 4.311037 0.000000 0.000003 32.905151 3.320178 -6.486611 2.611889 -0.000000 0.000007 36.224018 -4.707044 18.370953 -0.027303 -0.000001 -3.318855 25.721170 -0.046101 2.289715 0.443698 6.601295 0.334552 29.862331 13.449860 5.715401 12.079693 19.242626 0.000001 -0.000004 -11.827442 -0.108437 53.068511 50.754074 -0.000005 -0.000001 -114.775114 18.735088 0.000227 39.779907 -0.000000 0.000000 10.050750 44.201873 15.347782 -6.670614 0.334552 29.862337 -16.167270 6.956705 -14.175643 -19.242628 -0.000001 0.000007 15.056983 -3.735789 -54.483931 -50.754066 0.000001 0.000005 110.173376 10.830792 -0.000199 -39.779915 0.000010 0.000009 -23.346227 52.608067 -16.854076 16.594286 0.000000 0.000000 17.529585 21.809694 1.412440 0.000001 -0.000007 -80.133614 -0.000001 7.976960 0.000074 -0.000004 -0.000010 -62.502739 20.177374 12.855019 -9.442195 0.000000 -24.891422 -10.786272 -0.000033 -26.555816 0.000009 -16.594286 0.000000 0.000000 -10.627825 8.306291 18.760402 -0.000002 -0.000007 -80.133606 0.000002 8.771319 -0.000019 -0.000007 -0.000015 -62.502720 -5.135654 27.653349 -9.858143 -0.000010 -24.891436 -10.786289 0.000008 -24.890254 -0.000009 
-0.002104 -0.015761 -0.002541 -9.845000 -21.782540 -0.008877 0.000000 0.000002 13.607316 -4.046378 27.915069 4.373723 0.000000 0.000003 32.905155 3.340592 -6.522310 2.593126 -0.000001 0.000005 36.224033 -4.782565 18.411104 0.008540 -0.000000 -3.318853 25.721149 -0.049012 2.292452 0.439549 6.601293 0.334552 29.862326 13.436108 5.755470 12.082827 19.242626 0.000001 0.000002 -11.817675 -0.107162 53.061236 50.754086 -0.000006 0.000006 -114.759104 18.815481 -0.000608 39.779907 0.000002 0.000000 10.047894 44.419148 15.307702 -6.670614 0.334552 29.862341 -16.188831 6.985979 -14.139281 -19.242630 0.000001 0.000008 15.001865 -3.694270 -54.572324 -50.754063 -0.000001 -0.000011 110.174168 10.797332 0.000794 -39.779922 0.000006 0.000005 -23.462465 52.549980 -16.828693 16.594286 0.000000 -0.000000 17.515535 21.836045 1.409764 -0.000001 -0.000005 -80.133614 -0.000002 7.992325 0.000025 -0.000000 -0.000016 -62.502735 20.177591 12.856311 -9.437499 -0.000005 -24.891422 -10.786270 -0.000014 -26.555933 -0.000009 -16.594290 0.000000 0.000000 -10.616229 8.314816 18.768262 -0.000006 -0.000007 -80.133614 -0.000005 8.837143 -0.000012 0.000005 -0.000013 -62.502701 -5.177645 27.646234 -9.797141 -0.000014 -24.891455 -10.786279 0.000011 -24.903515 -0.000006 
-0.007314 -0.031142 -0.004240 -9.821208 -21.813007 0.012171 0.000000 0.000001 13.607315 -4.074371 27.942205 4.396460 0.000000 0.000002 32.905159 3.361500 -6.536620 2.598161 -0.000000 0.000005 36.224010 -4.826593 18.426122 0.020272 -0.000001 -3.318847 25.721142 -0.054141 2.266086 0.420064 6.601293 0.334551 29.862341 13.429237 5.768785 12.074616 19.242632 0.000002 0.000000 -11.800030 -0.082957 53.066772 50.754063 -0.000002 -0.000010 -114.789211 18.882915 -0.000073 39.779926 0.000005 0.000002 9.928734 44.754268 15.607054 -6.670611 0.334552 29.862333 -16.214867 7.001409 -14.140962 -19.242630 0.000001 -0.000005 14.941100 -3.648786 -54.633283 -50.754063 -0.000003 0.000005 110.194215 10.750429 0.000140 -39.779911 0.000000 -0.000005 -23.557712 52.458472 -16.783557 16.594284 -0.000000 -0.000000 17.507286 21.879587 1.381782 0.000005 -0.000007 -80.133621 0.000006 7.979743 0.000081 0.000001 -0.000013 -62.502739 20.187293 12.865935 -9.476404 0.000003 -24.891434 -10.786278 -0.000016 -26.575202 0.000004 -16.594288 -0.000000 0.000000 -10.576769 8.353535 18.751506 0.000003 -0.000006 -80.133614 0.000005 8.891831 -0.000021 -0.000007 -0.000018 -62.502693 -5.226502 27.624562 -9.822915 0.000001 -24.891430 -10.786283 0.000007 -24.899328 -0.000017 
-0.011926 -0.048529 -0.001513 -9.804063 -21.830360 0.023524 -0.000000 0.000001 13.607315 -4.099505 27.937461 4.417650 -0.000000 0.000003 32.905159 3.381025 -6.532247 2.606935 -0.000000 -0.000001 36.224026 -4.865138 18.460241 0.038336 0.000001 -3.318854 25.721148 -0.055915 2.289475 0.415504 6.601294 0.334551 29.862354 13.414071 5.763602 12.078804 19.242624 0.000001 0.000001 -11.784645 -0.057385 53.060652 50.754078 -0.000002 0.000006 -114.796656 18.945987 0.000600 39.779922 0.000002 -0.000008 9.833625 44.898375 15.861668 -6.670610 0.334552 29.862349 -16.234566 6.999907 -14.152003 -19.242632 -0.000000 0.000003 14.876569 -3.596355 -54.694242 -50.754059 0.000008 -0.000000 110.217813 10.682337 0.000044 -39.779911 0.000012 -0.000000 -23.627977 52.454487 -16.808517 16.594286 0.000000 -0.000000 17.517000 21.917934 1.357972 -0.000002 -0.000005 -80.133614 0.000005 7.959770 0.000039 -0.000003 -0.000017 -62.502724 20.166909 12.869203 -9.496869 -0.000002 -24.891432 -10.786263 -0.000012 -26.580777 0.000002 -16.594288 -0.000000 0.000000 -10.540198 8.356207 18.744136 -0.000006 -0.000008 -80.133606 -0.000003 8.981016 0.000005 -0.000009 -0.000019 -62.502705 -5.253270 27.593488 -9.855197 -0.000003 -24.891428 -10.786281 0.000000 -24.905448 -0.000006 
